<svg width="72" height="36" viewBox="0 0 72 36" fill="none" xmlns="http://www.w3.org/2000/svg">
<g id="Group">
<g id="Group_2">
<g id="Group_3">
<g id="Group_4">
<path id="Vector" d="M13.0832 11.2911C12.5455 11.6496 12.1871 12.008 11.4702 12.3665C9.67802 13.2626 7.88576 13.8002 6.27276 14.8756C3.04677 17.0262 3.04673 19.7145 6.45194 21.5068C9.85715 23.299 13.4416 24.5535 17.2052 25.2704C21.865 26.1665 26.5248 26.525 31.3638 27.0626C33.3352 27.2419 35.3067 27.0626 37.4574 27.0626C37.4574 25.6289 37.6366 24.1951 37.6366 22.4029C39.7872 24.912 41.5794 27.0626 43.5509 29.2133C41.9379 30.8263 39.9664 32.7977 37.6366 35.3068C37.6366 33.5146 37.4574 32.2601 37.4574 31.0055C32.26 30.6471 27.0625 30.2886 22.0443 29.751C16.1299 29.0341 10.3948 27.9587 5.01819 25.0912C2.6883 23.8366 0 22.4029 0 19.3561C0 16.1301 2.6883 14.6963 5.01819 13.4418C7.34807 12.1872 9.85724 11.4704 12.3663 10.395C12.7248 10.7535 12.9039 11.1119 13.0832 11.2911Z" fill="#FF0000"/>
<path id="Vector_2" d="M46.956 30.1093C46.5976 26.5249 46.5975 26.7041 49.4651 26.1665C54.1248 25.0911 58.7846 23.8366 63.2652 22.4028C65.2366 21.8651 67.2081 20.4314 67.2081 18.1015C67.2081 15.7716 65.0574 14.8755 63.4444 13.9794C62.1899 13.2625 60.9353 12.9041 59.6807 12.3664C59.1431 12.1872 58.7847 11.6495 58.6054 10.9326C62.9068 11.8287 66.8496 12.9041 70.0756 16.13C72.047 18.1015 72.047 20.4314 70.0756 22.4028C69.0002 23.4781 67.7457 24.3742 66.312 25.0911C60.3976 28.1379 53.7664 29.2132 46.956 30.1093Z" fill="#FF0000"/>
<path id="Vector_3" d="M59.1432 0C57.351 0 55.9172 1.43377 55.9172 3.22599C55.9172 5.01821 57.351 6.45198 59.1432 6.45198C60.9354 6.45198 62.3692 5.01821 62.3692 3.22599C62.3692 1.43377 60.9354 0 59.1432 0ZM59.1432 4.48054C58.4263 4.48054 57.7095 3.94288 57.7095 3.04677C57.7095 2.32988 58.2471 1.613 59.1432 1.613C59.8601 1.613 60.577 2.15066 60.577 3.04677C60.577 3.94288 59.8601 4.48054 59.1432 4.48054Z" fill="#FF0000"/>
<g id="Group_5">
<path id="Vector_4" d="M27.0626 13.6208C27.0626 16.6676 24.7328 18.9974 21.5068 18.9974C18.46 18.9974 16.1301 16.8468 16.1301 13.8H18.8185C18.9977 15.413 20.073 16.4883 21.686 16.4883C23.299 16.4883 24.5536 15.2338 24.5536 13.4416C24.5536 11.6493 23.299 10.574 21.3276 10.574H19.3561V10.0363L22.7614 4.83892H16.6678V2.50903H26.7043V3.0467L23.1198 8.60257C25.2705 9.14024 27.0626 11.1117 27.0626 13.6208Z" fill="#FF0000"/>
<path id="Vector_5" d="M41.2212 13.4416C41.2212 16.6676 38.7121 19.1767 35.3069 19.1767C31.7224 19.1767 29.3926 16.8468 29.3926 13.4416C29.3926 12.0078 29.9302 10.2156 31.1848 8.06493L34.4108 2.32983H37.2783C35.3068 5.73505 34.59 7.16882 33.8731 8.42337C34.59 8.24415 35.1276 8.06493 35.8445 8.06493C38.7121 8.06493 41.2212 10.2156 41.2212 13.4416ZM38.5328 13.4416C38.5328 11.4701 37.0991 10.2156 35.3069 10.2156C33.3354 10.2156 32.0809 11.4701 32.0809 13.4416C32.0809 15.2338 33.5147 16.6676 35.3069 16.6676C37.0991 16.6676 38.5328 15.2338 38.5328 13.4416Z" fill="#FF0000"/>
<path id="Vector_6" d="M43.0133 10.5741C43.0133 5.37662 45.5224 2.15063 49.4652 2.15063C53.4081 2.15063 55.9173 5.37662 55.9173 10.5741C55.9173 15.7715 53.4081 18.9975 49.4652 18.9975C45.5224 18.9975 43.0133 15.7715 43.0133 10.5741ZM53.229 10.5741C53.229 6.8104 51.7951 4.65974 49.4652 4.65974C47.1354 4.65974 45.7016 6.8104 45.7016 10.5741C45.7016 14.3377 47.1354 16.4884 49.4652 16.4884C51.7951 16.6676 53.229 14.3377 53.229 10.5741Z" fill="#FF0000"/>
</g>
</g>
</g>
</g>
</g>
</svg>
