<svg width="59" height="72" viewBox="0 0 59 72" fill="none" xmlns="http://www.w3.org/2000/svg">
<g id="Group">
<g id="Group_2">
<g id="Group_3">
<g id="Group_4">
<path id="Vector" d="M23.6573 49.1066C22.9404 49.2858 22.4028 49.465 21.8651 49.8235C21.1482 48.7482 20.6106 47.4936 19.8937 46.5975C18.6391 44.8053 17.2054 43.1923 15.9508 41.4001C13.9794 38.7117 12.3664 36.0234 11.6495 32.6182C10.0365 24.1948 14.6962 15.9506 22.7612 12.7246C33.3353 8.42326 45.5224 15.5921 47.1354 26.8831C47.8523 32.0805 46.2393 36.3819 43.3717 40.504C42.1172 42.2962 40.5042 44.0884 39.2496 46.0598C38.3535 47.3144 37.8159 48.5689 36.9198 49.8235C36.5613 50.3612 36.2029 50.8988 35.6652 51.078C31.5431 52.691 27.421 54.1248 23.2989 55.5586C22.7612 55.7378 22.4028 55.5586 22.2236 55.2001C22.0443 54.6625 22.0444 54.1248 22.582 53.9456C22.9405 53.7664 23.2989 53.5871 23.6573 53.5871C27.2417 52.3326 30.8262 51.078 34.4106 49.6443C34.7691 49.465 35.1275 49.1066 35.3067 48.7482C36.7405 46.0598 38.5328 43.9092 40.325 41.4001C42.1172 39.0702 43.7302 36.9195 44.447 34.052C46.2393 28.3169 44.9847 23.2987 41.0418 18.9973C36.5613 13.9791 30.8262 12.3661 24.3742 14.3376C17.9223 16.309 14.3378 20.7896 13.0832 27.4208C12.1871 32.0805 13.8001 36.0234 16.4884 39.6078C18.1014 41.7585 19.7145 43.9092 21.3275 46.0598C22.4028 46.7767 22.9404 47.852 23.6573 49.1066Z" fill="#0132E0"/>
<path id="Vector_2" d="M22.7612 66.8496C22.582 66.6704 22.2236 66.4912 22.2236 66.1327C22.2236 65.7743 22.4028 65.4159 22.5821 65.0574C22.5821 64.8782 22.9405 64.8782 23.1197 64.8782C27.0626 63.4444 31.1847 62.0106 35.1276 60.5769C36.0237 60.2184 36.3821 60.3976 36.5613 60.9353C36.7406 61.473 36.3821 62.0106 35.6652 62.3691C31.5431 63.8029 27.6003 65.2366 23.4782 66.8496C23.299 66.6704 23.1197 66.6704 22.7612 66.8496Z" fill="#0132E0"/>
<path id="Vector_3" d="M22.7612 60.9356C22.582 60.7563 22.2236 60.5771 22.2236 60.2187C22.2236 59.8602 22.4028 59.5018 22.5821 59.1433C22.5821 58.9641 22.9405 58.9641 23.1197 58.9641C27.0626 57.5304 31.1847 56.0966 35.1276 54.6628C36.0237 54.3044 36.3821 54.4836 36.5613 55.0212C36.7406 55.5589 36.5613 56.0966 35.6652 56.455C31.5431 57.8888 27.6003 59.5018 23.4782 60.9356C23.299 60.9356 23.1197 60.9356 22.7612 60.9356Z" fill="#0132E0"/>
<path id="Vector_4" d="M35.6652 65.9536C34.4107 70.2549 27.421 72.764 23.1197 70.4342C27.2418 69.0004 31.3639 67.3874 35.6652 65.9536Z" fill="#0132E0"/>
<path id="Vector_5" d="M30.2886 3.22599C30.2886 3.94288 30.2886 4.65977 30.2886 5.37665C30.2886 5.91432 29.9302 6.27276 29.3925 6.27276C28.8548 6.27276 28.4964 5.91432 28.4964 5.37665C28.4964 3.94288 28.4964 2.5091 28.4964 0.896109C28.4964 0.358443 28.8548 0 29.3925 0C29.9302 0 30.2886 0.358443 30.2886 0.896109C30.2886 1.613 30.2886 2.5091 30.2886 3.22599Z" fill="#0132E0"/>
<path id="Vector_6" d="M3.22603 28.3171C3.94292 28.3171 4.65983 28.3171 5.37671 28.3171C6.0936 28.3171 6.45205 28.6756 6.45205 29.2132C6.45205 29.7509 6.0936 30.1094 5.37671 30.1094C3.94294 30.1094 2.50918 30.1094 1.0754 30.1094C0.358515 30.1094 6.10352e-05 29.7509 6.10352e-05 29.2132C6.10352e-05 28.6756 0.358515 28.3171 1.0754 28.3171C1.79229 28.3171 2.50914 28.3171 3.22603 28.3171Z" fill="#0132E0"/>
<path id="Vector_7" d="M55.5588 30.2886C54.8419 30.2886 54.125 30.2886 53.4081 30.2886C52.8704 30.2886 52.512 29.9301 52.512 29.3924C52.512 28.8548 52.8704 28.4963 53.4081 28.4963C54.8418 28.4963 56.4548 28.4963 57.8886 28.4963C58.4263 28.4963 58.7847 28.8548 58.7847 29.3924C58.7847 29.9301 58.4263 30.2886 57.8886 30.2886C56.9925 30.2886 56.2756 30.2886 55.5588 30.2886Z" fill="#0132E0"/>
<path id="Vector_8" d="M8.96122 7.88574C9.31966 8.06496 9.49887 8.24419 9.67809 8.42341C10.7534 9.49874 11.6496 10.3948 12.7249 11.4702C13.2626 12.0078 13.2626 12.3663 12.7249 12.904C12.3664 13.2624 11.8287 13.2624 11.2911 12.904C10.2157 11.8286 9.14045 10.9325 8.24434 9.85718C8.06512 9.67796 7.88589 9.14029 8.06511 8.78185C8.24433 8.24419 8.782 8.06496 8.96122 7.88574Z" fill="#0132E0"/>
<path id="Vector_9" d="M46.4186 45.3433C46.777 45.5225 46.9562 45.7017 47.1354 45.8809C48.2108 46.777 49.1069 47.8524 50.1822 48.7485C50.7199 49.2861 50.7199 49.8238 50.3615 50.1823C50.003 50.5407 49.4653 50.5407 48.9276 50.003C47.8523 48.9277 46.9562 48.0316 45.8809 46.9563C45.7017 46.777 45.5225 46.2394 45.7017 45.8809C45.7017 45.7017 46.0601 45.5225 46.4186 45.3433Z" fill="#0132E0"/>
<path id="Vector_10" d="M50.7198 8.96107C50.5406 9.31951 50.3614 9.49873 50.1822 9.67795C49.1068 10.7533 48.2107 11.6494 47.1354 12.7247C46.7769 13.0832 46.2393 13.2624 45.7016 12.7247C45.3432 12.3663 45.3432 11.8286 45.7016 11.291C46.777 10.2156 47.673 9.14029 48.7484 8.24418C48.9276 8.06496 49.4653 7.88574 49.8237 8.06496C50.1822 8.24418 50.3614 8.78185 50.7198 8.96107Z" fill="#0132E0"/>
<path id="Vector_11" d="M8.96114 50.5405C8.78192 50.3612 8.42349 50.182 8.24427 49.8236C8.06504 49.6444 8.24427 49.1067 8.24427 48.9275C9.3196 47.8521 10.3949 46.5976 11.6495 45.5223C12.0079 45.1638 12.5455 45.1638 12.904 45.5223C13.2624 45.8807 13.2624 46.4184 12.904 46.7768C11.8287 47.8521 10.7533 48.9275 9.67802 50.0028C9.4988 50.3612 9.31959 50.5405 8.96114 50.5405Z" fill="#0132E0"/>
</g>
</g>
</g>
</g>
</svg>
