<svg width="72" height="72" viewBox="0 0 72 72" fill="none" xmlns="http://www.w3.org/2000/svg">
<path d="M69.5319 2.04175C68.4565 2.04175 67.202 2.04175 66.1267 2.04175C58.7786 2.40019 51.7889 4.01319 45.1577 7.23918C37.0927 11.0028 30.2823 16.3795 24.9057 23.5484C21.142 28.3873 18.4537 33.764 16.4822 39.4991C16.303 39.8575 16.4822 40.0368 16.6615 40.216C18.2744 41.829 19.8874 43.442 21.5004 45.055C21.6797 45.2342 21.8589 45.5926 21.8589 45.9511C21.8589 46.3095 21.6797 46.668 21.3212 46.8472C20.9628 47.0264 20.4251 47.0264 20.2459 46.668C19.3498 45.7719 18.6329 45.055 17.7368 44.1589C16.6615 43.0835 15.7653 42.0082 14.69 41.1121C14.3316 40.7536 14.1523 40.216 14.3316 39.6783C16.6615 32.6887 20.0667 26.2367 24.9057 20.5016C29.7446 14.5873 35.659 9.92751 42.2902 6.52229C48.3837 3.2963 55.0149 1.32486 61.8253 0.428753C64.6929 0.0703095 67.5604 -0.108912 70.428 0.0703096C71.3241 0.0703096 71.5033 0.428753 71.6825 1.32486C72.041 12.9743 69.1734 23.7276 62.9007 33.764C56.6279 43.6212 48.0253 50.9693 37.272 55.6291C35.659 56.3459 33.8667 56.8836 32.0745 57.6005C31.5369 57.7797 31.1784 57.7797 30.82 57.2421C29.0278 55.4498 27.0563 53.4784 25.2641 51.6862C24.9057 51.3277 24.7264 50.7901 25.0849 50.2524C25.4433 49.7147 26.1602 49.7147 26.6979 50.2524C28.3109 51.8654 29.9239 53.4784 31.5369 55.0914C31.8953 55.4498 32.0745 55.4498 32.433 55.2706C40.3187 52.5823 47.3084 48.281 53.2227 42.5459C60.2123 35.7354 64.8721 27.6705 67.5604 18.5301C68.9942 13.5119 69.7111 8.31451 69.7111 2.93786C69.7111 2.57941 69.5319 2.40019 69.5319 2.04175Z" fill="#2BB79D"/>
<path d="M59.6747 23.0107C59.6747 29.1042 54.8357 33.9432 48.7421 33.9432C42.6486 33.9432 37.8096 29.1042 37.8096 23.0107C37.8096 17.0963 42.6486 12.0781 48.5629 12.0781C54.8357 12.0781 59.6747 16.9171 59.6747 23.0107ZM57.524 23.1899C57.524 18.1717 53.5811 14.2288 48.5629 14.2288C43.5447 14.2288 39.6018 18.1717 39.6018 23.1899C39.6018 28.2081 43.5447 32.151 48.5629 32.151C53.5811 31.9717 57.524 28.0289 57.524 23.1899Z" fill="#2BB79D"/>
<path d="M32.2538 68.8913C33.5084 68.1745 34.7629 67.2783 35.8382 66.3822C39.4227 63.1562 41.3941 59.2134 42.2902 54.5536C42.4695 53.8367 42.8279 53.4783 43.3656 53.4783C44.0824 53.4783 44.4409 54.0159 44.4409 54.7328C44.2617 55.6289 44.0824 56.7043 43.724 57.6004C41.7526 63.6939 38.1681 68.1745 32.6123 71.2212C31.3577 71.9381 30.82 71.5797 30.6408 70.3251C29.9239 66.5615 29.207 62.6186 28.4902 58.8549C28.4902 58.4965 28.4902 58.138 28.4902 57.9588C28.6694 57.6004 29.0278 57.4211 29.5655 57.4211C29.9239 57.4211 30.2824 57.7796 30.4616 58.138C30.6408 59.2134 30.82 60.2887 31.1785 61.5432C31.3577 64.0523 31.8954 66.3822 32.2538 68.8913Z" fill="#2BB79D"/>
<path d="M2.68217 39.3199C3.7575 39.4991 4.83283 39.6783 5.72894 39.8576C8.23805 40.3952 10.7472 40.7537 13.077 41.2913C13.2563 41.2913 13.2563 41.2913 13.4355 41.2913C13.9731 41.4706 14.3316 42.0082 14.1524 42.5459C13.9731 43.0836 13.6147 43.442 12.8978 43.2628C11.464 42.9043 9.85104 42.7251 8.41727 42.3667C6.08738 41.829 3.7575 41.4706 1.2484 40.9329C1.06918 40.9329 1.06918 40.9329 0.889954 40.9329C-0.00615441 40.7537 -0.185376 40.216 0.173067 39.3199C1.2484 37.3485 2.50295 35.377 4.11595 33.764C7.52116 30.1796 11.6433 28.2082 16.303 27.1328C16.4822 27.1328 16.6615 27.1328 16.6615 26.9536C17.1991 26.7744 17.7368 27.1328 17.916 27.6705C18.0952 28.2082 17.7368 28.7458 17.0199 28.925C15.9446 29.2835 14.69 29.4627 13.6147 29.8212C8.95493 31.4341 5.3705 34.3017 2.68217 38.4238C2.86139 38.9615 2.86139 39.1407 2.68217 39.3199Z" fill="#2BB79D"/>
<path d="M15.4069 55.2707C15.5861 55.0915 15.7653 54.733 15.9446 54.5538C19.3498 51.1486 22.5758 47.9226 25.981 44.5174C27.2355 43.2628 28.3109 42.1875 29.5654 40.9329C30.1031 40.3953 30.6407 40.3953 31.1784 40.7537C31.5368 41.1122 31.5368 41.829 30.9992 42.3667C27.0563 46.3096 23.1134 50.4317 18.9913 54.3746C18.4537 54.9122 17.916 55.6291 17.1991 56.1668C16.8407 56.5252 16.4822 56.5252 16.1238 56.346C15.5861 56.1668 15.4069 55.8083 15.4069 55.2707Z" fill="#2BB79D"/>
<path d="M10.7472 59.9304C11.1056 60.1096 11.4641 60.2889 11.6433 60.6473C11.8225 61.0057 11.6433 61.3642 11.4641 61.7226C11.2848 61.9019 10.9264 62.2603 10.7472 62.6187C8.59651 64.7694 6.44585 67.0993 4.11596 69.25C3.75752 69.4292 3.5783 69.6084 3.21986 69.6084C2.86141 69.6084 2.50297 69.4292 2.32375 69.0707C2.14453 68.5331 2.14452 68.1746 2.50297 67.8162C3.93674 66.3824 5.37052 64.9486 6.80429 63.5149C7.87962 62.4395 8.77573 61.5434 9.85106 60.4681C10.2095 60.2889 10.3887 60.1096 10.7472 59.9304Z" fill="#2BB79D"/>
<path d="M9.13414 52.5823C10.0302 52.5823 10.5679 53.4784 10.2095 54.016C10.0302 54.1953 10.0302 54.3745 9.85102 54.5537C7.52114 56.8836 5.19126 59.2135 2.86137 61.5434L2.68215 61.7226C2.14449 62.081 1.60682 62.2603 1.24838 61.7226C0.889935 61.3641 0.889935 60.6473 1.24838 60.2888C3.0406 58.4966 4.83281 56.7044 6.62503 54.9122C7.34192 54.1953 7.87958 53.6576 8.59647 53.1199C8.77569 52.7615 9.13414 52.5823 9.13414 52.5823Z" fill="#2BB79D"/>
<path d="M19.1706 62.6188C19.1706 62.798 18.9913 62.9772 18.8121 63.3357C16.303 65.8448 13.9731 68.1747 11.464 70.6838C10.9264 71.2214 10.3887 71.2214 9.85102 70.6838C9.49258 70.3253 9.49258 69.6084 10.0302 69.25C12.5394 66.7409 14.8692 64.411 17.3783 61.9019C17.7368 61.5435 18.0952 61.3642 18.6329 61.5435C18.9913 61.7227 19.1706 61.9019 19.1706 62.6188Z" fill="#2BB79D"/>
</svg>
